<svg width="115" height="115" viewBox="0 0 115 115" fill="none" xmlns="http://www.w3.org/2000/svg">
<circle cx="57.5" cy="57.5" r="57.5" fill="#F18C8E"/>
<path d="M65.5219 48.6503H74.1736V44.0362H74.1443C74.1245 40.9014 73.0066 38.023 71.1619 35.7756C71.161 35.7747 71.16 35.7731 71.1588 35.7719C70.6327 35.1316 70.0473 34.5417 69.4116 34.0127C69.4109 34.0121 69.4097 34.0115 69.4091 34.0109C69.3303 33.9453 69.2509 33.8809 69.1706 33.8172C69.1682 33.8157 69.166 33.8138 69.1639 33.812C69.0848 33.7495 69.0051 33.6876 68.9248 33.627C68.923 33.6254 68.9205 33.6239 68.9187 33.6226C68.8378 33.5614 68.7559 33.5014 68.6735 33.4423C68.6735 33.442 68.6732 33.442 68.6732 33.442C68.5895 33.382 68.5056 33.3226 68.4204 33.2647C68.4152 33.2613 68.41 33.2579 68.4048 33.2542C67.9809 32.9662 67.5394 32.7024 67.0823 32.4657C67.0792 32.4642 67.0762 32.4626 67.0728 32.4611C66.8908 32.367 66.7061 32.277 66.5192 32.1913C66.5177 32.1907 66.5161 32.1901 66.5146 32.1892C66.4218 32.1471 66.3293 32.1056 66.2358 32.0654C66.2346 32.0651 66.2334 32.0645 66.2325 32.0639C66.1421 32.0255 66.0511 31.9881 65.9598 31.9513C65.9579 31.9507 65.9561 31.9497 65.9543 31.9491C65.8856 31.9216 65.816 31.8953 65.7466 31.8687C65.7176 31.8579 65.6889 31.8464 65.6599 31.8356C65.5982 31.8127 65.5362 31.7907 65.4739 31.7688C65.4361 31.7555 65.3982 31.7412 65.3597 31.7283C65.3194 31.7143 65.2785 31.7016 65.2382 31.688C65.1768 31.6676 65.1158 31.6469 65.0541 31.6274C65.0342 31.6212 65.0144 31.6157 64.9945 31.6095C64.9133 31.5844 64.8318 31.5594 64.7496 31.5358C64.749 31.5358 64.7487 31.5355 64.7481 31.5355C64.6507 31.5074 64.5524 31.4802 64.4537 31.4545C64.4525 31.4542 64.451 31.4539 64.4495 31.4536C64.4031 31.4412 64.356 31.4301 64.309 31.4186C64.2507 31.4041 64.192 31.3889 64.1331 31.375C64.1328 31.375 64.1325 31.375 64.1322 31.375C64.032 31.3512 63.931 31.3289 63.8299 31.3079C63.8265 31.3072 63.8232 31.3066 63.8198 31.3057C63.7184 31.2847 63.6164 31.2649 63.5141 31.2463C63.5111 31.2457 63.508 31.2454 63.505 31.2448C63.4021 31.2259 63.2989 31.2086 63.1954 31.1925C63.1929 31.1922 63.1902 31.1919 63.1877 31.1912C63.0836 31.1752 62.9792 31.1603 62.8741 31.1467C62.872 31.1464 62.8698 31.1461 62.8677 31.1458C62.762 31.1325 62.6564 31.1201 62.5501 31.109C62.5486 31.109 62.5468 31.1086 62.5452 31.1083C62.4387 31.0975 62.3315 31.0879 62.2243 31.0796C62.2231 31.0796 62.2219 31.0796 62.2203 31.0793C62.1129 31.0709 62.0045 31.0638 61.896 31.0582C61.8951 31.0582 61.8942 31.0582 61.8936 31.0582C61.7846 31.0527 61.675 31.0483 61.5657 31.0455C61.565 31.0455 61.5647 31.0455 61.5644 31.0455C61.4542 31.0428 61.3437 31.0412 61.2331 31.0412C54.121 31.0412 48.3207 36.9171 48.3207 44.1219V44.2239H48.3283V52.9859L35.2834 53.0357L35.2766 70.878L35.2757 70.8787C35.2128 73.2073 33.2946 75.0857 30.9812 75.0857C28.6681 75.0857 26.7745 73.2064 26.7116 70.8781H26.7098V70.7586V52.9312H19.4877V52.9207H5.29187V61.7183H18.1026V70.8781L18.102 70.8799C18.102 78.0847 23.8938 83.9587 31.0056 83.9587C31.1164 83.9587 31.2266 83.9572 31.3366 83.9544C31.3372 83.9544 31.3378 83.9544 31.3381 83.9544C31.4477 83.9513 31.557 83.9473 31.6658 83.9417C31.6667 83.9417 31.6676 83.9414 31.6685 83.9414C31.7769 83.9358 31.8847 83.9287 31.9925 83.9203C31.994 83.9203 31.9952 83.9203 31.9968 83.92C32.1039 83.9117 32.2108 83.9024 32.3171 83.8913C32.3189 83.8913 32.3208 83.891 32.3229 83.8907C32.3498 83.8879 32.3766 83.8845 32.4032 83.8814C32.4844 83.8724 32.566 83.8634 32.6466 83.8529C32.7513 83.8396 32.8554 83.8248 32.9593 83.8087C32.962 83.8081 32.9651 83.8077 32.9678 83.8074C33.071 83.7914 33.1742 83.7737 33.2765 83.7552C33.2777 83.7552 33.2787 83.7549 33.2796 83.7545C33.3376 83.744 33.395 83.7323 33.4527 83.7211C33.4988 83.7122 33.5452 83.7038 33.591 83.6942C33.595 83.6936 33.5987 83.6927 33.6027 83.6921C33.7031 83.671 33.8036 83.6487 33.9034 83.6252C33.9053 83.6249 33.9071 83.6246 33.9089 83.624C33.9563 83.6129 34.0033 83.6005 34.0506 83.589C34.1074 83.5748 34.1642 83.5612 34.221 83.5467C34.2576 83.5371 34.2943 83.5266 34.3306 83.5167C34.3969 83.4987 34.4632 83.4811 34.5288 83.4622C34.5694 83.4505 34.6094 83.4378 34.6497 83.4257C34.7096 83.4078 34.7694 83.3905 34.8293 83.3716C34.8879 83.353 34.9459 83.3332 35.0042 83.3137C35.0458 83.3001 35.0876 83.2868 35.1291 83.2726C35.1862 83.2531 35.2427 83.2324 35.2992 83.2123C35.342 83.1968 35.3844 83.1823 35.4269 83.1665C35.4889 83.1436 35.5505 83.1192 35.6122 83.095C35.6479 83.0814 35.6837 83.0678 35.7191 83.0539C35.7863 83.027 35.8528 82.9988 35.9194 82.971C35.949 82.9586 35.979 82.9469 36.0083 82.9342C36.0761 82.9051 36.1432 82.8751 36.2104 82.8448C36.2391 82.8321 36.2678 82.8197 36.2962 82.8067C36.3652 82.7752 36.4333 82.7427 36.5017 82.7099C36.5271 82.6975 36.5527 82.6858 36.5778 82.6734C36.6471 82.6397 36.7158 82.6047 36.7842 82.5701C36.8089 82.5574 36.834 82.545 36.8584 82.5323C36.9338 82.4934 37.008 82.4535 37.0825 82.4129C37.0984 82.4043 37.1149 82.3959 37.1308 82.3873C37.2083 82.3446 37.2856 82.3007 37.3622 82.2564C37.3757 82.2487 37.3894 82.241 37.4028 82.2335C37.4801 82.1884 37.5567 82.1426 37.6331 82.0962C37.6453 82.0888 37.6575 82.0816 37.6697 82.0742C37.8377 81.9709 38.0032 81.8639 38.1662 81.7531C38.1745 81.7476 38.1833 81.742 38.1916 81.7361C38.2731 81.6807 38.3534 81.6241 38.4334 81.5669C38.4371 81.5644 38.4411 81.5616 38.4447 81.5592C38.5223 81.5032 38.5996 81.4466 38.6759 81.3893C38.6826 81.3841 38.6893 81.3794 38.6963 81.3742C38.7638 81.3231 38.8307 81.2712 38.8973 81.2189C38.9138 81.2059 38.9303 81.1935 38.9464 81.1805C39.0158 81.1258 39.0842 81.0698 39.1519 81.0135C39.1626 81.0048 39.1733 80.9962 39.184 80.9875C39.421 80.7905 39.6506 80.5848 39.8729 80.3716C39.8738 80.3707 39.875 80.3698 39.876 80.3692C39.9495 80.2983 40.0222 80.2269 40.0943 80.1542C40.0952 80.1535 40.0961 80.1523 40.097 80.1514C40.3132 79.9342 40.5218 79.7087 40.7224 79.4764C40.7258 79.4727 40.7288 79.469 40.7322 79.4656C40.7926 79.395 40.8525 79.3239 40.9114 79.2524C40.9191 79.2432 40.927 79.2342 40.9346 79.2249C40.9981 79.1473 41.0607 79.0687 41.1227 78.9898C41.124 78.9886 41.1252 78.987 41.1264 78.9855C41.1847 78.9109 41.2421 78.8355 41.2989 78.7594C41.3053 78.751 41.3118 78.7427 41.3182 78.734C41.9994 77.8196 42.565 76.8121 42.9925 75.7347C42.9931 75.7331 42.994 75.7319 42.9943 75.7303C43.5784 74.2573 43.9699 72.6521 43.9821 70.9746L43.983 70.9755V61.73H48.3283V83.5411H56.9178V61.73H74.1773V83.4765H82.8202V61.73H108.708V52.986H82.8202V44.2027C82.8199 44.2024 82.8199 44.2024 82.8199 44.2024C82.8199 41.8134 84.7555 39.85 87.1141 39.85C89.4724 39.85 91.4008 41.8335 91.4008 44.2228C91.4002 44.2228 91.4026 44.2209 91.4011 44.2197V48.6209H100.035L100.047 44.2197H100.042C100.042 37.0149 94.2418 31.1387 87.1297 31.1387C87.0195 31.1387 86.9092 31.1403 86.7993 31.1431C86.7987 31.1431 86.7978 31.1434 86.7972 31.1434C86.6879 31.1462 86.5791 31.1502 86.4707 31.1557C86.4695 31.1557 86.468 31.1561 86.4671 31.1561C86.359 31.1613 86.2515 31.1684 86.1443 31.1768C86.1422 31.1768 86.1407 31.1771 86.1385 31.1771C86.0323 31.1854 85.926 31.1947 85.82 31.2055C85.8176 31.2059 85.8151 31.2059 85.8127 31.2062C85.7073 31.217 85.6026 31.2287 85.4982 31.2424C85.4951 31.2427 85.4918 31.243 85.4887 31.2436C85.3852 31.2572 85.2817 31.2714 85.1788 31.2872C85.1782 31.2875 85.1779 31.2875 85.1772 31.2875C85.1171 31.2968 85.0572 31.3073 84.9974 31.3175C84.9495 31.3256 84.9015 31.3327 84.8539 31.3413C84.8181 31.3478 84.7827 31.3553 84.7467 31.3621C84.6768 31.3754 84.6068 31.3884 84.5375 31.4026C84.511 31.4079 84.4847 31.4143 84.4581 31.4199C84.379 31.4366 84.3 31.4536 84.2212 31.4722C84.2068 31.4756 84.1925 31.4793 84.1778 31.4827C84.0905 31.5034 84.0031 31.5245 83.9161 31.5471C83.8834 31.5554 83.8514 31.565 83.8187 31.5737C83.7469 31.5928 83.6752 31.612 83.604 31.6324C83.5866 31.6371 83.5698 31.6426 83.5527 31.6476C83.4703 31.6717 83.3881 31.6958 83.3066 31.7215C83.2333 31.7444 83.1603 31.7685 83.0877 31.7927C83.0635 31.8007 83.0388 31.8084 83.015 31.8165C82.9484 31.8394 82.8828 31.8629 82.8168 31.8864C82.7817 31.8988 82.7463 31.9111 82.7115 31.9241C82.6623 31.9421 82.6134 31.9613 82.564 31.9801C82.5142 31.9993 82.4644 32.0176 82.415 32.0374C82.3685 32.0556 82.3231 32.0748 82.2769 32.0937C82.2266 32.1144 82.1759 32.1348 82.1258 32.1561C82.0809 32.1753 82.036 32.1954 81.9911 32.2149C81.9392 32.2378 81.8873 32.2604 81.8354 32.2839C81.8009 32.2997 81.7667 32.3161 81.7322 32.3322C81.6714 32.3603 81.6106 32.3885 81.5502 32.4178C81.5077 32.4386 81.4656 32.4602 81.4232 32.4813C81.3749 32.5051 81.3267 32.5289 81.279 32.5536C81.2198 32.5836 81.1615 32.6152 81.1031 32.6464C81.0705 32.6638 81.0375 32.6805 81.0051 32.6984C80.9434 32.7321 80.8824 32.7668 80.8213 32.8014C80.792 32.8181 80.7624 32.8345 80.7334 32.8512C80.6527 32.8973 80.5733 32.9446 80.494 32.9929C80.4878 32.9966 80.4814 33 80.4753 33.004C80.392 33.0548 80.3092 33.1064 80.2274 33.159C80.2222 33.1621 80.217 33.1655 80.2118 33.1686C80.1287 33.2221 80.0463 33.2762 79.9645 33.3316C79.9608 33.3338 79.9574 33.3366 79.9538 33.3387C79.8716 33.3944 79.7904 33.451 79.7098 33.5083C79.7061 33.5107 79.7025 33.5129 79.6988 33.5157C79.6215 33.5707 79.5446 33.627 79.4682 33.684C79.4612 33.6889 79.4542 33.6942 79.4472 33.6994C79.373 33.7551 79.2994 33.8117 79.2264 33.8686C79.2179 33.8754 79.209 33.8819 79.2004 33.889C79.129 33.9453 79.0581 34.0023 78.9879 34.0601C78.9785 34.0678 78.9687 34.0753 78.9595 34.083C78.6441 34.3432 78.3415 34.6182 78.0523 34.9071C78.0505 34.9086 78.0489 34.9105 78.0471 34.912C77.757 35.2022 77.48 35.506 77.2177 35.8224C77.2162 35.8243 77.2147 35.8261 77.2129 35.828C77.1487 35.9059 77.0852 35.9845 77.0226 36.0637C77.0211 36.0655 77.0196 36.0677 77.018 36.0696C76.9567 36.1475 76.8962 36.2264 76.8367 36.3056C76.8336 36.3093 76.8309 36.3127 76.8281 36.3164C76.7689 36.3953 76.7108 36.4748 76.6534 36.5549C76.6504 36.5592 76.6473 36.5636 76.6443 36.5676C76.5872 36.6477 76.5307 36.7288 76.4751 36.8107C76.4724 36.8148 76.4696 36.8185 76.4669 36.8225C76.4128 36.902 76.36 36.9821 76.3078 37.0629C76.3032 37.07 76.2983 37.0771 76.2937 37.0845C75.8497 37.7743 75.4687 38.509 75.1584 39.2811C75.1541 39.2919 75.1492 39.3028 75.1453 39.3136C75.1105 39.4002 75.0772 39.4877 75.0442 39.5756C75.0402 39.5861 75.0363 39.5966 75.0323 39.6075C74.9969 39.7024 74.9627 39.7983 74.9294 39.8945C74.9291 39.8955 74.9288 39.8967 74.9285 39.8979C74.8943 39.9963 74.8619 40.0953 74.8304 40.1949C74.8298 40.1967 74.8289 40.1986 74.8283 40.2005C74.7972 40.2994 74.7666 40.3991 74.7379 40.499C74.737 40.5011 74.7364 40.5036 74.7358 40.5058C74.7065 40.6069 74.6784 40.7084 74.6512 40.8105C74.6512 40.8111 74.6509 40.8117 74.6509 40.8123C74.5968 41.0171 74.5477 41.2238 74.5037 41.4322C74.5031 41.4347 74.5025 41.4369 74.5022 41.4394C74.4805 41.5411 74.46 41.6438 74.4411 41.7465C74.4402 41.7502 74.4396 41.754 74.439 41.7577C74.42 41.8594 74.4023 41.9615 74.3858 42.0642C74.3849 42.0689 74.3843 42.0738 74.3834 42.0785C74.3678 42.1762 74.3535 42.2746 74.3397 42.3729C74.3382 42.3844 74.3367 42.3958 74.3348 42.4073C74.3214 42.5084 74.3092 42.6093 74.2982 42.7107C74.2976 42.7157 74.2967 42.7206 74.2964 42.7259C74.2857 42.8236 74.2762 42.9214 74.2677 43.0198C74.2664 43.0343 74.2649 43.0488 74.264 43.0634C74.2555 43.1636 74.2484 43.2645 74.2423 43.3653C74.242 43.3715 74.2417 43.3774 74.2411 43.3835C74.235 43.4887 74.2301 43.5942 74.2264 43.6997C74.2261 43.7046 74.2261 43.7096 74.2258 43.7145C74.2222 43.8213 74.22 43.9283 74.2188 44.0359C74.2188 44.0381 74.2188 44.0406 74.2188 44.0431H74.1773V52.986H56.9178L56.9175 44.156C56.9175 44.156 56.9178 44.1563 56.9178 44.156C56.9178 41.7651 58.8736 39.7819 61.2362 39.7819C63.599 39.7819 65.5262 41.732 65.5262 44.1229C65.5262 44.1866 65.5246 44.25 65.5219 44.3131V48.6503L65.5219 48.6503Z" fill="#FAFAFA"/>
</svg>
