<svg width="640" height="290" viewBox="0 0 640 290" fill="none" xmlns="http://www.w3.org/2000/svg">
<rect x="229" y="70" width="171" height="149" rx="60" fill="#FAFAFA"/>
<path d="M389.75 116.371C389.957 118.733 389.317 121.03 387.796 122.844L318.933 204.911C317.411 206.725 315.133 207.904 312.771 208.111C310.547 208.305 308.099 207.539 306.286 206.017L251.574 160.109C249.761 158.587 248.732 156.436 248.525 154.074C248.319 151.711 248.946 149.276 250.468 147.462L262.02 133.847C263.542 132.034 265.681 130.866 268.043 130.66C270.406 130.453 272.715 131.231 274.528 132.753L308.685 161.414L360.44 99.8893C361.962 98.0757 364.1 96.9083 366.463 96.7016C368.825 96.4949 371.134 97.2732 372.948 98.795L386.689 110.197C388.503 111.718 389.543 114.008 389.75 116.371ZM426.742 135.821C421.587 76.8944 369.596 33.2686 310.669 38.4241C251.742 43.5795 208.116 95.5706 213.272 154.497C218.427 213.424 270.418 257.05 329.345 251.894C388.272 246.739 431.898 194.748 426.742 135.821Z" fill="#F18C8E"/>
</svg>
